<svg width="26" height="26" fill="none" xmlns="http://www.w3.org/2000/svg"><g clip-path="url(#clip0_971_8493)"><path d="M13 26c7.18 0 13-5.82 13-13S20.18 0 13 0 0 5.82 0 13s5.82 13 13 13z" fill="#34AADF"/><path d="M6 12.707s5.75-2.473 7.744-3.344A312.2 312.2 0 0117.1 7.9s1.196-.487 1.096.697c-.033.488-.299 2.194-.565 4.04-.399 2.613-.83 5.47-.83 5.47s-.067.801-.632.94c-.565.14-1.496-.487-1.662-.627-.133-.104-2.492-1.672-3.356-2.438-.233-.21-.499-.627.033-1.115a129.763 129.763 0 003.49-3.483c.398-.418.797-1.394-.865-.21-2.36 1.708-4.686 3.31-4.686 3.31s-.532.348-1.529.035c-.997-.314-2.16-.732-2.16-.732s-.797-.522.565-1.08z" fill="#fff"/></g><defs><clipPath id="clip0_971_8493"><path fill="#fff" d="M0 0h26v26H0z"/></clipPath></defs></svg>